<svg id="Layer_1" version="1.1" viewBox="0 0 32 32" xml:space="preserve" xmlns="http://www.w3.org/2000/svg" enable-background="new 0 0 32 32"><g id="circle_x5F_spinner_x5F_8"><path d="M10.4 9.3 6.7 5.5C9 3.5 11.9 2.2 15 2v5.3c-1.7.2-3.3.9-4.6 2z" fill="#96a4b4" class="fill-222a30"></path><path d="M16.8 7.3V2c3.1.2 6.1 1.4 8.4 3.4l-3.8 3.8c-1.3-1.1-2.9-1.7-4.6-1.9z" fill="#96a4b4" class="fill-868687"></path><path d="m22.7 10.4 3.8-3.8c2 2.4 3.3 5.3 3.5 8.4h-5.3a8.7 8.7 0 0 0-2-4.6zM24.7 16.8H30c-.2 3.1-1.4 6.1-3.4 8.4l-3.8-3.8c1.1-1.3 1.7-2.9 1.9-4.6zM21.6 22.7l3.8 3.8c-2.4 2-5.3 3.3-8.4 3.5v-5.3c1.7-.2 3.3-.9 4.6-2zM15.2 24.7V30c-3.1-.2-6.1-1.4-8.4-3.4l3.8-3.8c1.3 1.1 2.9 1.7 4.6 1.9zM9.3 21.6l-3.8 3.8C3.5 23 2.2 20.1 2 17h5.3c.2 1.7.9 3.3 2 4.6zM7.3 15.2H2c.2-3.1 1.4-6.1 3.4-8.4l3.8 3.8c-1.1 1.3-1.7 2.9-1.9 4.6z" fill="#96a4b4" class="fill-222a30"></path></g></svg>